<svg width="120" height="17" viewBox="0 0 120 17" fill="none" xmlns="http://www.w3.org/2000/svg">
<path d="M7.3432 4.365C9.0682 4.365 10.4332 5.04 11.1982 6.105C11.9782 7.14 12.3532 8.415 12.3082 9.795C12.2932 10.755 12.0832 11.64 11.6782 12.435C11.2732 13.23 10.6582 13.89 9.8182 14.4C8.9932 14.91 8.0182 15.15 6.8932 15.135C5.1532 15.12 3.7282 14.37 2.9332 13.29C2.1532 12.195 1.7332 10.905 1.7782 9.645C1.7932 8.07 2.3332 6.795 3.3682 5.82C4.4182 4.845 5.7382 4.365 7.3432 4.365ZM9.8932 9.525C9.7582 8.13 9.3532 6.945 8.7082 5.97C8.0632 4.98 7.2982 4.53 6.3982 4.62C5.5882 4.68 4.9732 5.16 4.5532 6.075C4.1482 6.99 4.0132 8.16 4.1632 9.615C4.4182 12.225 5.8582 14.745 7.6132 14.865C8.5582 14.955 9.2182 14.52 9.5932 13.545C9.9832 12.57 10.0882 11.22 9.8932 9.525ZM21.7601 5.595C22.1651 6.18 22.3301 6.9 22.2401 7.77C22.1501 8.625 21.8501 9.27 21.3401 9.69C20.9051 10.05 20.3801 10.305 19.7801 10.44C19.1801 10.575 18.3551 10.575 17.2901 10.44C18.4301 10.41 19.2251 10.125 19.6751 9.585C20.1251 9.03 20.3501 8.31 20.3501 7.41C20.3501 5.49 19.4651 4.545 17.7101 4.56C17.4551 4.56 17.2301 4.575 17.0051 4.59V13.365C17.0051 14.1 17.3201 14.61 17.7401 14.79C18.1601 14.97 18.3851 15 18.5801 15H13.3751C13.5101 15 13.6451 15 13.9901 14.88C14.4401 14.715 14.9351 14.325 14.9351 13.365V5.775C14.9351 5.19 14.6651 4.8 14.2601 4.665C13.8851 4.53 13.6901 4.5 13.4951 4.5L15.6551 4.455L17.7101 4.395C19.8251 4.38 21.0251 4.575 21.7601 5.595ZM31.3695 5.595C31.7745 6.18 31.9395 6.9 31.8495 7.77C31.7595 8.625 31.4595 9.27 30.9495 9.69C30.5145 10.05 29.9895 10.305 29.3895 10.44C28.7895 10.575 27.9645 10.575 26.8995 10.44C28.0395 10.41 28.8345 10.125 29.2845 9.585C29.7345 9.03 29.9595 8.31 29.9595 7.41C29.9595 5.49 29.0745 4.545 27.3195 4.56C27.0645 4.56 26.8395 4.575 26.6145 4.59V13.365C26.6145 14.1 26.9295 14.61 27.3495 14.79C27.7695 14.97 27.9945 15 28.1895 15H22.9845C23.1195 15 23.2545 15 23.5995 14.88C24.0495 14.715 24.5445 14.325 24.5445 13.365V5.775C24.5445 5.19 24.2745 4.8 23.8695 4.665C23.4945 4.53 23.2995 4.5 23.1045 4.5L25.2645 4.455L27.3195 4.395C29.4345 4.38 30.6345 4.575 31.3695 5.595ZM40.6488 13.83C41.5338 13.17 42.2238 12.405 42.4188 12.09L42.5688 11.835L41.9088 15H32.7288C32.9088 15 33.1488 14.955 33.5538 14.775C33.9738 14.595 34.2888 14.115 34.2888 13.455V5.97C34.2888 5.43 34.0488 5.01 33.7938 4.83C33.6738 4.725 33.5238 4.65 33.3438 4.605C32.9988 4.485 32.8938 4.5 32.7288 4.5H41.4588L41.9688 7.425C41.8338 7.2 41.5938 6.9 41.2188 6.525C40.8438 6.15 40.4538 5.805 40.0188 5.505C39.5388 5.175 39.0738 4.95 38.6388 4.845C38.2038 4.725 37.6188 4.665 36.8838 4.665H36.3588V9.465H36.8088C38.4138 9.435 38.9838 8.265 39.1788 7.8L39.2238 7.605V11.61C39.2088 11.505 39.1938 11.37 38.9538 10.935C38.6538 10.335 38.0238 9.705 36.8088 9.66H36.3588V13.35C36.3588 14.355 36.7788 14.865 37.6338 14.865H38.0688C38.8788 14.865 39.7338 14.52 40.6488 13.83ZM52.5593 10.695V6.66C52.5593 5.895 52.2743 5.325 51.9593 5.04C51.8093 4.89 51.6293 4.77 51.4193 4.695C50.9993 4.515 50.8193 4.515 50.6243 4.5H54.6893C54.4943 4.515 54.3293 4.515 53.8943 4.695C53.3543 4.905 52.7393 5.46 52.7393 6.66V15.345H52.7243L52.6943 15.285L45.9743 7.02C45.6143 6.6 45.3893 6.795 45.3893 7.44V12.705C45.3893 14.4 46.6343 14.895 47.1443 14.97L47.3543 15H43.2143C43.3193 15 43.4393 15 43.9043 14.82C44.5343 14.58 45.1643 13.965 45.2093 12.69V7.335C45.2093 5.025 43.8593 4.59 43.5593 4.515L43.4993 4.5H46.7093L51.9893 11.04C52.1843 11.265 52.3193 11.37 52.3943 11.355C52.4993 11.34 52.5593 11.115 52.5593 10.695ZM64.8495 6.135V13.365C64.8495 14.1 65.1195 14.61 65.5245 14.79C65.9295 14.97 66.1095 15 66.3045 15H61.3395C61.5195 15 62.7195 14.97 62.7795 13.41V9.66H58.4595V13.365C58.4595 14.1 58.7295 14.61 59.1345 14.79C59.5395 14.97 59.7195 15 59.9145 15H54.9645C55.1445 15 56.3295 14.97 56.3895 13.41V6.135C56.3895 5.4 56.1195 4.89 55.7145 4.71C55.3395 4.53 55.1445 4.5 54.9495 4.5H59.9145C59.7195 4.5 59.5395 4.53 59.1345 4.71C58.7295 4.89 58.4595 5.4 58.4595 6.135V9.465H62.7795V6.135C62.7795 5.4 62.5095 4.89 62.1045 4.71C61.6995 4.53 61.5195 4.5 61.3245 4.5H66.3045C66.1095 4.5 65.9295 4.53 65.5245 4.71C65.1195 4.89 64.8495 5.4 64.8495 6.135ZM74.6625 13.83C75.5475 13.17 76.2375 12.405 76.4325 12.09L76.5825 11.835L75.9225 15H66.7425C66.9225 15 67.1625 14.955 67.5675 14.775C67.9875 14.595 68.3025 14.115 68.3025 13.455V5.97C68.3025 5.43 68.0625 5.01 67.8075 4.83C67.6875 4.725 67.5375 4.65 67.3575 4.605C67.0125 4.485 66.9075 4.5 66.7425 4.5H75.4725L75.9825 7.425C75.8475 7.2 75.6075 6.9 75.2325 6.525C74.8575 6.15 74.4675 5.805 74.0325 5.505C73.5525 5.175 73.0875 4.95 72.6525 4.845C72.2175 4.725 71.6325 4.665 70.8975 4.665H70.3725V9.465H70.8225C72.4275 9.435 72.9975 8.265 73.1925 7.8L73.2375 7.605V11.61C73.2225 11.505 73.2075 11.37 72.9675 10.935C72.6675 10.335 72.0375 9.705 70.8225 9.66H70.3725V13.35C70.3725 14.355 70.7925 14.865 71.6475 14.865H72.0825C72.8925 14.865 73.7475 14.52 74.6625 13.83ZM81.113 6.135V13.365C81.113 14.085 81.428 14.595 81.848 14.775C82.268 14.955 82.493 15 82.688 15H77.513C77.708 15 77.933 14.955 78.353 14.775C78.773 14.595 79.073 14.085 79.073 13.365V6.135C79.073 5.4 78.773 4.89 78.338 4.71C77.918 4.53 77.708 4.5 77.513 4.5H82.688C82.553 4.5 82.418 4.5 82.058 4.62C81.608 4.785 81.113 5.175 81.113 6.135ZM96.5981 6.255V13.26C96.5981 14.85 98.0081 15 98.1731 15H92.8481C93.0281 15 93.2681 14.94 93.6731 14.745C94.0931 14.52 94.4081 13.995 94.4081 13.26V7.65C94.4081 6.945 94.3631 6.585 94.2581 6.57C94.1231 6.555 94.0331 6.705 93.7781 7.32L90.4631 15.33L86.0981 7.185C85.5731 6.12 85.4081 6.54 85.4081 7.185L85.3781 12.645C85.3781 13.53 85.7531 14.205 86.1281 14.505C86.3231 14.64 86.5481 14.76 86.8031 14.85C87.2981 15.015 87.4481 15 87.5831 15H83.0531C83.1731 15 83.3381 15.015 83.8181 14.835C84.5081 14.625 85.1531 14.01 85.1981 12.615V6.885C85.1981 4.965 83.7581 4.59 83.4281 4.515L83.3681 4.5H87.0881L90.6131 11.04C90.9131 11.595 90.9881 11.745 91.1681 11.94C91.3931 12.18 91.6031 11.955 91.8881 11.235L94.7381 4.5H98.1881C98.1281 4.5 96.5981 4.59 96.5981 6.255ZM106.655 13.83C107.54 13.17 108.23 12.405 108.425 12.09L108.575 11.835L107.915 15H98.7347C98.9147 15 99.1547 14.955 99.5597 14.775C99.9797 14.595 100.295 14.115 100.295 13.455V5.97C100.295 5.43 100.055 5.01 99.7997 4.83C99.6797 4.725 99.5297 4.65 99.3497 4.605C99.0047 4.485 98.8997 4.5 98.7347 4.5H107.465L107.975 7.425C107.84 7.2 107.6 6.9 107.225 6.525C106.85 6.15 106.46 5.805 106.025 5.505C105.545 5.175 105.08 4.95 104.645 4.845C104.21 4.725 103.625 4.665 102.89 4.665H102.365V9.465H102.815C104.42 9.435 104.99 8.265 105.185 7.8L105.23 7.605V11.61C105.215 11.505 105.2 11.37 104.96 10.935C104.66 10.335 104.03 9.705 102.815 9.66H102.365V13.35C102.365 14.355 102.785 14.865 103.64 14.865H104.075C104.885 14.865 105.74 14.52 106.655 13.83ZM116.945 11.475L117.92 13.26C118.385 14.115 119.105 14.745 119.51 14.88L119.795 15H116.795C116.45 14.55 116.105 13.995 115.76 13.35L114.53 11.13C113.81 9.81 113.03 9.945 112.715 9.945L112.7 14.07C112.7 14.34 112.79 14.55 112.955 14.715C113.315 15.015 113.555 15 113.81 15H109.19C109.385 15 109.58 14.985 109.955 14.82C110.36 14.655 110.63 14.22 110.63 13.605V5.895C110.63 4.53 109.235 4.5 109.19 4.5C109.58 4.5 110.27 4.485 111.275 4.455C112.28 4.41 113.03 4.395 113.54 4.41C115.535 4.455 116.585 4.665 117.245 5.43C117.65 5.865 117.83 6.465 117.815 7.2C117.815 8.025 117.515 8.685 116.93 9.195C116.495 9.6 116.045 9.825 115.61 9.885C115.955 9.96 116.405 10.485 116.945 11.475ZM114.02 9.63C115.25 9.315 115.865 8.49 115.865 7.125C115.865 5.145 114.8 4.44 112.7 4.56L112.715 9.78C113.195 9.78 113.63 9.735 114.02 9.63Z" fill="white"/>
</svg>
