<svg width="36" height="36" viewBox="0 0 36 36" fill="none" xmlns="http://www.w3.org/2000/svg">
<path d="M29.9163 11.1244C29.9354 11.4151 29.9354 11.7058 29.9354 11.9966C29.9354 20.8636 23.7488 31.0806 12.4417 31.0806C8.95813 31.0806 5.7221 29.9799 3 28.0695C3.49494 28.1318 3.97079 28.1526 4.48477 28.1526C7.3591 28.1526 10.0051 27.0935 12.118 25.2869C9.41499 25.2246 7.14974 23.2933 6.36927 20.6353C6.75001 20.6975 7.1307 20.7391 7.53049 20.7391C8.0825 20.7391 8.63457 20.656 9.1485 20.5107C6.33124 19.8876 4.21823 17.1881 4.21823 13.9278V13.8448C5.03673 14.3432 5.98859 14.6546 6.9974 14.6961C5.3413 13.4917 4.25631 11.4358 4.25631 9.11003C4.25631 7.86408 4.56083 6.72195 5.09386 5.72517C8.12053 9.79532 12.6701 12.4533 17.7715 12.7441C17.6764 12.2457 17.6193 11.7266 17.6193 11.2075C17.6193 7.51105 20.3604 4.5 23.7678 4.5C25.5381 4.5 27.137 5.30988 28.2602 6.61814C29.6497 6.32743 30.9822 5.76672 32.1625 4.99839C31.7055 6.55588 30.7348 7.86415 29.4594 8.69473C30.6967 8.54944 31.896 8.17557 33 7.65647C32.1626 8.98544 31.1156 10.1691 29.9163 11.1244Z" fill="white"/>
</svg>
